# xmcd
#
# Track frame offsets:
#	150
#	19950
#	38706
#	73369
#	92485
#	129679
#	153499
#	189549
#	217427
#	259702
#	288024
#
# Disc length: 4117 seconds
#
# Revision: 1
# Processed by: cddbd v1.4PL0 Copyright (c) Steve Scherf et al.
# Submitted via: audiograbber 1.81.03
#
DISCID=a610130b
DTITLE=Lucky Evans Lopez - Southside Saturday Night
DYEAR=1990
DGENRE=Blues
TTITLE0=Cut You Loose
TTITLE1=Pay Check
TTITLE2=Good Lovings
TTITLE3=Young Girl
TTITLE4=Hail To The King
TTITLE5=Smell Something Funny
TTITLE6=Extra Extra
TTITLE7=Tail Draggin'
TTITLE8=There Was A Day
TTITLE9=Something Wrong With Me
TTITLE10=Pay Check (Live Version)
EXTD=
EXTT0=
EXTT1=
EXTT2=
EXTT3=
EXTT4=
EXTT5=
EXTT6=
EXTT7=
EXTT8=
EXTT9=
EXTT10=
PLAYORDER=
